<?xml version="1.0" encoding="UTF-8" standalone="no"?>
<svg xmlns:rdf="http://www.w3.org/1999/02/22-rdf-syntax-ns#" xmlns="http://www.w3.org/2000/svg" height="207.48pt" width="244.75pt" version="1.1" xmlns:cc="http://creativecommons.org/ns#" xmlns:xlink="http://www.w3.org/1999/xlink" viewBox="0 0 244.75437 207.48436" xmlns:dc="http://purl.org/dc/elements/1.1/">
 <path d="m213.88 132.68c0 1.67-1.3639 3.03-3.0504 3.03h-9.1219v-63.79h9.1219c1.6865 0 3.0504 1.36 3.0504 3.03zm-45.903-0.68c0 0.68-0.45463 1.28-1.1146 1.46-0.65995 0.19-1.3492-0.1-1.7012-0.68l-36.576-60.86h39.391zm-76.07 3.71v-57.46c0-0.68 0.45463-1.29 1.1146-1.46 0.65994-0.18 1.3492 0.1 1.7012 0.69l34.904 58.23zm-33.731 0h-5.5289c-1.6719 0-3.0357-1.36-3.0357-3.03v-57.73c0-1.67 1.3639-3.03 3.0357-3.03h5.5289zm182.66-74.29-18.874-18.88c-1.1439-1.12-2.6838-1.77-4.297-1.77h-15.956v-5.6c0-1.69 1.3639-3.04 3.0357-3.04h10.266c1.6718 0 3.0357-1.36 3.0357-3.05v-23.54c0-1.68-1.3639-3.03-3.0357-3.03h-60.334c-1.6719 0-3.0358 1.35-3.0358 3.03v23.54c0 1.69 1.3639 3.05 3.0358 3.05h10.266c1.6865 0 3.0358 1.35 3.0358 3.04v5.6h-58.104l-21.251-35.308c-1.0999-1.84-3.0797-2.95-5.2209-2.95h-38.555c-1.6719 0-3.0357 1.35-3.0357 3.03v23.54c0 1.69 1.3639 3.05 3.0357 3.05h10.266c1.6719 0 3.0357 1.35 3.0357 3.04v5.6h-52.517c-1.6865 0-3.0504 1.36-3.0504 3.04v25.07c0 1.68 1.3639 3.04 3.0504 3.04h7.1861c1.6865 0 3.0357 1.36 3.0357 3.03v57.73c0 1.67-1.3492 3.03-3.0357 3.03h-7.1861c-1.6865 0-3.0504 1.37-3.0504 3.04v25.08c0 1.67 1.3639 3.03 3.0504 3.03h52.517v5.71c0 1.68-1.3639 3.03-3.0357 3.03h-10.266c-1.6719 0-3.0357 1.37-3.0357 3.05v23.54c0 1.69 1.3639 3.05 3.0357 3.05h60.334c1.6718 0 3.0357-1.36 3.0357-3.05v-23.54c0-1.68-1.3639-3.05-3.0357-3.05h-10.266c-1.6719 0-3.0357-1.35-3.0357-3.03v-5.71h56.403l22.101 36.9c0.55729 0.93 1.5399 1.48 2.6104 1.48h25.65c1.6719 0 3.0358-1.36 3.0358-3.05v-35.33h15.956c1.6132 0 3.1531-0.63 4.297-1.77l18.874-18.88c1.1439-1.14 1.7745-2.69 1.7745-4.29v-76.2c0-1.6-0.63062-3.16-1.7745-4.3" stroke="#c99700" stroke-width="3.7544" fill="#0c234f"/>
</svg>