<svg id="Layer_1" data-name="Layer 1" xmlns="http://www.w3.org/2000/svg" viewBox="0 0 605.56 294.57"><defs><style>.cls-1{fill:#04352b;}.cls-2{fill:#b9cec5;}.cls-3{fill:none;stroke:#fff;stroke-width:18px;}</style></defs><title>pr-logo-alt</title><path class="cls-1" d="M468.55,202.79a57.22,57.22,0,0,0-11.64,3.5,106.93,106.93,0,0,0-41.2,29.62c-4.3,4.94-7.25,10.71-10.47,16.31q-9.36,16.27-18.65,32.58c-6.83,11.93-13.62,23.87-20.49,35.77Q351.53,345.8,336.87,371q-14.14,24.37-28.28,48.75c-5.56,9.58-11.17,19.13-16.73,28.72a2.17,2.17,0,0,1-2.2,1.17q-33.55-.09-67.1-.12c-1.67,0-1.72-.12-.9-1.75,5.93-11.76,12.36-23.24,19-34.61,7.27-12.42,14.42-24.92,21.68-37.35,9-15.39,18.09-30.71,27-46.13,5.77-10,11.31-20,17-30q7.92-14,15.94-27.87c6.09-10.51,12.15-21,18.44-31.43,3.32-5.48,7.94-9.95,12.64-14.27a99.09,99.09,0,0,1,53.36-25c5.71-.79,11.42-.45,17.14-.25,3.48.12,7,.07,10.46.11,7.13.08,14.26.1,21.39.31,2.67.08,5.35.22,8,.21,1.52.08,3,.12,4.56.26.56,0,1.37-.14,1.41.85l-.92.26Z" transform="translate(-162.78 -191.43)"/><path class="cls-1" d="M455.86,449.58c-11.16,0-22.31,0-33.47,0-3.58,0-3.14,0-1.55-2.59,4.75-7.87,9.6-15.68,14.48-23.48,8.05-12.88,16.22-25.69,24-38.73,1.84-3.07,3.56-6.21,5.42-9.27,1.15-1.9,2.43-2.25,4.35-2.52,1.92.07,6,.41,8.24.62A52.29,52.29,0,0,0,489,373a74.88,74.88,0,0,0,13.89-3.13,88.75,88.75,0,0,0,22-10.28A81.29,81.29,0,0,0,551.51,332,79.29,79.29,0,0,0,561,307.92a73.4,73.4,0,0,0,1.44-11.77,99.37,99.37,0,0,0-.67-17.77,85.28,85.28,0,0,0-6.69-24.14c-2-4.31-3.86-8.68-5.85-13-.39-.85,0-1.3.46-1.85a117.7,117.7,0,0,1,18.16-18.79,87.82,87.82,0,0,1,24.57-14.34,81.64,81.64,0,0,1,16.09-4.2c6-1,12-.91,17.94-1,15.11-.36,30.23-.66,45.34-.47.65,0,1.79-.49,1.89.48.07.76-1.11.55-1.73.72A102.2,102.2,0,0,0,647.65,212a119,119,0,0,0-27.11,21.44,96.26,96.26,0,0,0-14.38,19.83c-3.56,6.53-7.41,12.9-11.16,19.33q-10.11,17.33-19.69,35c-3.15,5.78-6.76,11.29-10.09,17-6.16,10.53-12.23,21.11-18.4,31.63-5.68,9.68-11.46,19.31-17.18,29q-7.51,12.7-15,25.43-8.14,13.88-16.27,27.76c-1.94,3.32-3.91,6.62-5.79,10a2,2,0,0,1-2,1.17q-17.37,0-34.75,0Z" transform="translate(-162.78 -191.43)"/><path class="cls-1" d="M759.28,289.48c-.19,14.89-2.67,27.4-8.89,39a79.63,79.63,0,0,1-23.19,26.69A77.47,77.47,0,0,1,672.61,370a71.77,71.77,0,0,1-18.74-4.63,50.38,50.38,0,0,1-9.46-5.08c-.41-.28-1.12-.41-1-1.09a2,2,0,0,1,1.25-1.56,69.44,69.44,0,0,0,16.06-9A76.57,76.57,0,0,0,687,315a63.25,63.25,0,0,0,4.46-30.83,73.4,73.4,0,0,0-8.3-26.28,97.19,97.19,0,0,0-22.61-28.12,87.38,87.38,0,0,0-9.49-7.16c-.58-.38-1.15-.67-.18-1.35,5.2-3.68,10.39-7.39,16.23-10a40.61,40.61,0,0,1,23-3.22c8.28,1.22,15.82,4.4,23.18,8.13,6,3,11.93,6.24,17.11,10.65A80,80,0,0,1,752.76,258,85.88,85.88,0,0,1,758,276.28C758.83,281.21,759.56,286.22,759.28,289.48Z" transform="translate(-162.78 -191.43)"/><path class="cls-1" d="M553.22,289.44a72.37,72.37,0,0,1-2.43,20.12c-3.57,14.54-11.21,26.69-22.22,36.78a75.94,75.94,0,0,1-25.17,15.41,77.67,77.67,0,0,1-19,4.26c-8.86.92-17.47-.33-26.08-2.2-4.91-1.07-9.83-2-14.5-4-.44-.18-1-.16-1.06-.77s.61-.52,1-.71c9.62-5.3,18.62-11.44,26.36-19.29a68.88,68.88,0,0,0,20.39-47.57,95.89,95.89,0,0,0-.39-13.11,72.66,72.66,0,0,0-5.77-20.91,70.65,70.65,0,0,0-22.84-28.82,78.23,78.23,0,0,1-9-7.45c-1.74-1.74-1.69-1.94.25-3.39a40.68,40.68,0,0,1,11.65-5.62c6.85-2.32,13.81-3.68,21.12-2.74,19.89,2.55,36.44,11.19,49.13,26.85a84.85,84.85,0,0,1,15.72,30.57A75.76,75.76,0,0,1,553.22,289.44Z" transform="translate(-162.78 -191.43)"/><path class="cls-1" d="M710.47,450.9c-4.83,0-9.66.15-14.48,0-10.18-.39-20.37-.21-30.55-.4-5.94-.11-11.89-.18-17.83-.45-4.42-.2-8.57-1.71-12.64-3.34a70.42,70.42,0,0,1-25.75-17.92c-3.53-3.83-6.21-8.32-9.19-12.57-11.45-16.36-22.37-33.08-33.64-49.56q-4-5.89-8.17-11.71a1.71,1.71,0,0,1-.17-2c5.63-10.88,11.52-21.62,17.88-32.09,2.47-4.07,5-8.09,7.48-12.17a2.84,2.84,0,0,1,2.82-1.58c4.29.12,8.58.12,12.87.09a2.27,2.27,0,0,1,2.09,1.12c7.36,10.34,14.52,20.82,21.66,31.31q11.44,16.79,22.81,33.62c7.46,11,15.29,21.71,22.8,32.66,12.62,18.4,29.38,31.64,49.46,40.94a59.22,59.22,0,0,0,8.11,3c.43.13,1.14.11,1.08.74s-.79.43-1.2.44c-5.15,0-10.29,0-15.44,0Z" transform="translate(-162.78 -191.43)"/><path class="cls-2" d="M208.86,457.36h57.31c1.91,0,2.4.7,1.5,2.44-1.22,2.36-2.57,4.66-3.92,7a86.45,86.45,0,0,1-5,7.93A2.83,2.83,0,0,1,256.2,476q-41.43-.05-82.86,0c-.5,0-1.17.27-1.44-.36a1.88,1.88,0,0,1,.34-1.77c3.2-5.57,6.32-11.19,9.48-16.79,3.9-6.92,7.77-13.86,11.7-20.76,3.26-5.74,6.62-11.42,9.88-17.16s6.21-11.36,9.47-16.95c2.63-4.5,5.18-9,7.73-13.59,2.9-5.19,5.95-10.31,8.87-15.48,3.51-6.2,6.93-12.45,10.44-18.64,3.11-5.49,6.32-10.93,9.44-16.42,3.88-6.83,7.7-13.68,11.57-20.51,2.26-4,4.59-8,6.85-12q6.06-10.69,12.07-21.4,5.28-9.38,10.54-18.76c1-1.76,2.36-3.39,3-5.26,1.55-4.47,4.86-7.67,7.56-11.32,1.17-1.58,2.69-2.8,3.75-4.5,1.23-2,3.49-3,5.14-4.69a86.34,86.34,0,0,1,12.36-9.86c3-2.12,6.35-3.86,9.58-5.71a93.19,93.19,0,0,1,9.47-4.52c2.69-1.16,5.47-2.11,8.23-3.1.73-.26,1.68-.56,2.16.33s-.38,1.29-.82,1.89c-1.79,2.46-4.51,3.9-6.53,6.12A117.07,117.07,0,0,0,334,237.67c-.78,1.51-3.65,6.43-4.43,7.85-3.65,6.64-7.4,13.24-11.14,19.83-2.1,3.7-4.29,7.35-6.39,11-2.34,4.12-4.6,8.28-6.95,12.39-3.21,5.64-6.5,11.24-9.7,16.88-5.27,9.29-10.47,18.61-15.75,27.89-3.93,6.92-8,13.78-11.91,20.69-3.49,6.12-6.88,12.3-10.38,18.41-5.67,9.92-11.4,19.8-17.08,29.71-6.21,10.84-12.36,21.72-18.58,32.56-2.73,4.76-5.56,9.45-8.31,14.2C211.88,451.76,210.47,454.44,208.86,457.36Z" transform="translate(-162.78 -191.43)"/><path class="cls-2" d="M417.48,457.33c16.38.56,32.76.31,49.14.33,2.16,0,2.45.53,1.32,2.46-2.91,5-5.85,9.93-8.75,14.91a1.71,1.71,0,0,1-1.68,1c-1.23,0-2.47,0-3.7,0-10.82.38-21.65.12-32.47.4-5.12,0-10,0-15.26,0-6.16-.1-12.34-.11-18.62-.16-4.34-.27-8.67-.12-13-.25-3.61-.1-4.33-.39-2.66-4.32A119.3,119.3,0,0,1,378.26,459c3.64-6.28,6.72-12.3,10.41-18.56,2.59-4.4,5.24-8.77,7.77-13.2s5.14-8.53,7.67-12.82c4.59-7.79,9-15.67,13.52-23.5.6-1,.15-1.47-.74-1.79-.19-.07-.48,0-.63-.08-2.23-1.54-3.67-.91-5,1.38-1.11,1.91-3.5,2.17-5.4,2.92-6.46,2.56-13.21,4-20,5.43-3.27.68-6.56.43-9.81.92a60.24,60.24,0,0,1-10.43.29c-8.75-.22-17.31-1.47-25.47-4.88-1.4-.58-2.92-.88-4.3-1.57-1.7-.85-2.09-1.76-1.13-3.4,2.31-4,4.71-7.86,7-11.81,2-3.48,4-7,6-10.51,1-1.8,2.1-3.58,3.12-5.39.7-1.24,1.52-1.32,2.6-.46,2.14,1.69,4.26,3.4,6.48,5a69.23,69.23,0,0,0,16.35,8.5c2.55.94,5,2,7.64,2.8a72.53,72.53,0,0,0,10.59,2.17,63.6,63.6,0,0,0,13.28.57,101.84,101.84,0,0,0,13-1.58,93,93,0,0,0,10.17-2.38c2.91-.94,6-1.51,8.7-3a24.88,24.88,0,0,1,3.16-1.07,8.52,8.52,0,0,0,3.89-2.39c1.15-1.46,2.63-1.22,4.1-.89,1.24.28,2.44.74,3.66,1.1.93.28,1.19,1.31.59,2.35-3.67,6.32-7.31,12.66-11,19q-6.35,10.84-12.76,21.63c-3.64,6.15-7.46,12.2-10.91,18.46-2.52,4.58-5.51,8.9-7.69,13.66-1.46,3.2-2.81,6.45-4.17,9.69-.38.9-.24,1.42,1,1.56A76.2,76.2,0,0,0,417.48,457.33Z" transform="translate(-162.78 -191.43)"/><path class="cls-2" d="M684.87,476.65c-4.56,0-9.12-.15-13.67,0-15.43.59-30.87.19-46.3.23a29,29,0,0,1-7.18-.41c-2.65-.68-5.33-1.41-8-2.21a67.81,67.81,0,0,1-11.66-4.9,95.29,95.29,0,0,1-14.57-10,55.87,55.87,0,0,1-8.56-8.52c-2.27-2.76-4.26-5.82-6.29-8.81-2.95-4.36-5.76-8.84-9-13-2.49-3.16-4.2-6.77-6.63-9.94s-4.6-6.42-6.73-9.71c-3-4.68-6.26-9.21-9.19-13.95a8.65,8.65,0,0,0-.75-1c-1.52-1.79-1.76-3.41-.36-5.17,2.15-2.7,3.53-5.83,5.31-8.73,3.44-5.62,6.78-11.31,10.18-17,1-1.6,1.93-1.66,3-.13,1.69,2.34,3.31,4.73,4.94,7.11q4.62,6.8,9.21,13.61c2.44,3.62,4.73,7.35,7.31,10.87,2.92,4,5.39,8.28,8.31,12.27,3.18,4.33,6,8.9,9.1,13.3s6.22,9,9.68,13.27a58.36,58.36,0,0,0,8.54,8A76.66,76.66,0,0,0,624,450.27a86,86,0,0,0,14.26,5.91c6.72,2.15,13.57,2,20.45,2.17,18.92.49,37.84.23,56.76.28a6.66,6.66,0,0,0,1.76-.06c.74-.21,1.58-.23,1.83.42a2.14,2.14,0,0,1-.59,2.35c-3.19,2.58-6.27,5.28-9.47,7.85a95.13,95.13,0,0,0-8.52,7,2,2,0,0,1-1.62.46h-14Z" transform="translate(-162.78 -191.43)"/><path class="cls-2" d="M684.46,291.18a47,47,0,0,1-1.37,12.38A58.23,58.23,0,0,1,676,321.09c-1.59,2.57-3.3,5.08-4.9,7.64a32.45,32.45,0,0,1-5,5.54,84.48,84.48,0,0,1-8.73,7.65,74.49,74.49,0,0,1-13.66,7.89c-.38.18-.76.38-1.15.55a3.57,3.57,0,0,1-5.06-3.63c.07-1,.86-1.43,1.35-2.09,1.8-2.45,3.62-4.88,5.22-7.49a56.87,56.87,0,0,0,3.74-6.83,51.15,51.15,0,0,0,4.43-16.13c.12-3.91.18-4.07.1-5.6a106.49,106.49,0,0,0-1.41-12.37,82.48,82.48,0,0,0-2.27-8.74,55.29,55.29,0,0,0-5.83-12.89c-1.64-2.8-3.83-5.24-5.65-7.89a69.21,69.21,0,0,0-7.24-8.29c-1.77-1.86-4-3.13-6-4.71a44.64,44.64,0,0,0-5.35-4c-.74-.43-.58-1.47-.08-2.15,2-2.79,4.07-5.59,6.35-8.22a110.43,110.43,0,0,1,9.07-9,40.59,40.59,0,0,1,6.62-5,2.29,2.29,0,0,1,2.45-.16,82.49,82.49,0,0,1,8.56,5.89c2.24,1.81,4.49,3.59,6.57,5.61a106,106,0,0,1,10,11,81.8,81.8,0,0,1,6.42,9.36,78,78,0,0,1,7.94,18.45A55.1,55.1,0,0,1,684.46,291.18Z" transform="translate(-162.78 -191.43)"/><path class="cls-2" d="M482.43,287.45c-.35,8.17-1,15.94-3.4,23.4a48.15,48.15,0,0,1-4.68,9.94,60.3,60.3,0,0,1-11,13.4,128.49,128.49,0,0,1-14.7,11.51c-3.67,2.48-7.56,4.56-11.2,7.05a2.19,2.19,0,0,1-1.85.22,1.87,1.87,0,0,1-.72-.34c-1-.75-2.6-.86-2.9-2.09s1.23-1.82,1.94-2.71A103.44,103.44,0,0,0,442.56,336a66.82,66.82,0,0,0,5.62-12.37,51.73,51.73,0,0,0,2.37-14.1,66.81,66.81,0,0,0-1.77-18.69,64.33,64.33,0,0,0-7.58-18.52,63.69,63.69,0,0,0-11-13.93,61.39,61.39,0,0,0-7.46-6,22.36,22.36,0,0,0-4.73-2.73c-1.15-.42-1.15-1.05-.65-2a39.21,39.21,0,0,1,5.46-7.29,93.84,93.84,0,0,1,12.54-11.87c1.4-1.06,2.79-2.13,4.2-3.17a1.54,1.54,0,0,1,2.17,0c3.48,3.13,7.65,5.23,11.56,7.7a60.48,60.48,0,0,1,13.24,11.52,63.22,63.22,0,0,1,11.32,19,72.28,72.28,0,0,1,3,10.4A101.9,101.9,0,0,1,482.43,287.45Z" transform="translate(-162.78 -191.43)"/><path class="cls-1" d="M403.92,372.93A52.42,52.42,0,0,1,383,369.76c-9-3.32-17.9-6.82-25.19-13.36-1.1-1-1.61-1.57-.63-3.18,8.72-14.41,17.3-28.91,25.92-43.38,1.12-1.88,2.25-3.76,3.36-5.65.22-.37.41-.89.83-.92.66,0,.57.72.7,1.08,1.78,5,4,9.92,5.86,14.91a68.62,68.62,0,0,0,15.71,23.93,97.06,97.06,0,0,0,25.67,19.32c1.45.73,3,1.29,4.46,2,.31.14.85,0,.88.54s-.54.62-.89.77a104.74,104.74,0,0,1-11.81,4,111.07,111.07,0,0,1-16.69,3.06A59.73,59.73,0,0,1,403.92,372.93Z" transform="translate(-162.78 -191.43)"/><path class="cls-2" d="M551.54,218.63a2,2,0,0,1-.67,1.19,95,95,0,0,0-9,9.32c-1.42,1.72-1.69,1.68-3.24.1-.94-1-1.9-1.88-2.82-2.86s-.9-2.11.38-2.71a131.68,131.68,0,0,1,13.43-5.6C550.88,217.64,551.51,217.86,551.54,218.63Z" transform="translate(-162.78 -191.43)"/><path class="cls-2" d="M468.55,202.79h.26l-.13.06Z" transform="translate(-162.78 -191.43)"/><path class="cls-3" d="M468.55,202.79a57.22,57.22,0,0,0-11.64,3.5,106.93,106.93,0,0,0-41.2,29.62c-4.3,4.94-7.25,10.71-10.47,16.31q-9.36,16.27-18.65,32.58c-6.83,11.93-13.62,23.87-20.49,35.77Q351.53,345.8,336.87,371q-14.14,24.37-28.28,48.75c-5.56,9.58-11.17,19.13-16.73,28.72a2.17,2.17,0,0,1-2.2,1.17q-33.55-.09-67.1-.12c-1.67,0-1.72-.12-.9-1.75,5.93-11.76,12.36-23.24,19-34.61,7.27-12.42,14.42-24.92,21.68-37.35,9-15.39,18.09-30.71,27-46.13,5.77-10,11.31-20,17-30q7.92-14,15.94-27.87c6.09-10.51,12.15-21,18.44-31.43,3.32-5.48,7.94-9.95,12.64-14.27a99.09,99.09,0,0,1,53.36-25c5.71-.79,11.42-.45,17.14-.25,3.48.12,7,.07,10.46.11,7.13.08,14.26.1,21.39.31,2.67.08,5.35.22,8,.21,1.52.08,3,.12,4.56.26.56,0,1.37-.14,1.41.85l-.92.26Z" transform="translate(-162.78 -191.43)"/><path class="cls-3" d="M455.86,449.58c-11.16,0-22.31,0-33.47,0-3.58,0-3.14,0-1.55-2.59,4.75-7.87,9.6-15.68,14.48-23.48,8.05-12.88,16.22-25.69,24-38.73,1.84-3.07,3.56-6.21,5.42-9.27,1.15-1.9,2.43-2.25,4.35-2.52,1.92.07,6,.41,8.24.62A52.29,52.29,0,0,0,489,373a74.88,74.88,0,0,0,13.89-3.13,88.75,88.75,0,0,0,22-10.28A81.29,81.29,0,0,0,551.51,332,79.29,79.29,0,0,0,561,307.92a73.4,73.4,0,0,0,1.44-11.77,99.37,99.37,0,0,0-.67-17.77,85.28,85.28,0,0,0-6.69-24.14c-2-4.31-3.86-8.68-5.85-13-.39-.85,0-1.3.46-1.85a117.7,117.7,0,0,1,18.16-18.79,87.82,87.82,0,0,1,24.57-14.34,81.64,81.64,0,0,1,16.09-4.2c6-1,12-.91,17.94-1,15.11-.36,30.23-.66,45.34-.47.65,0,1.79-.49,1.89.48.07.76-1.11.55-1.73.72A102.2,102.2,0,0,0,647.65,212a119,119,0,0,0-27.11,21.44,96.26,96.26,0,0,0-14.38,19.83c-3.56,6.53-7.41,12.9-11.16,19.33q-10.11,17.33-19.69,35c-3.15,5.78-6.76,11.29-10.09,17-6.16,10.53-12.23,21.11-18.4,31.63-5.68,9.68-11.46,19.31-17.18,29q-7.51,12.7-15,25.43-8.14,13.88-16.27,27.76c-1.94,3.32-3.91,6.62-5.79,10a2,2,0,0,1-2,1.17q-17.37,0-34.75,0Z" transform="translate(-162.78 -191.43)"/><path class="cls-3" d="M759.28,289.48c-.19,14.89-2.67,27.4-8.89,39a79.63,79.63,0,0,1-23.19,26.69A77.47,77.47,0,0,1,672.61,370a71.77,71.77,0,0,1-18.74-4.63,50.38,50.38,0,0,1-9.46-5.08c-.41-.28-1.12-.41-1-1.09a2,2,0,0,1,1.25-1.56,69.44,69.44,0,0,0,16.06-9A76.57,76.57,0,0,0,687,315a63.25,63.25,0,0,0,4.46-30.83,73.4,73.4,0,0,0-8.3-26.28,97.19,97.19,0,0,0-22.61-28.12,87.38,87.38,0,0,0-9.49-7.16c-.58-.38-1.15-.67-.18-1.35,5.2-3.68,10.39-7.39,16.23-10a40.61,40.61,0,0,1,23-3.22c8.28,1.22,15.82,4.4,23.18,8.13,6,3,11.93,6.24,17.11,10.65A80,80,0,0,1,752.76,258,85.88,85.88,0,0,1,758,276.28C758.83,281.21,759.56,286.22,759.28,289.48Z" transform="translate(-162.78 -191.43)"/><path class="cls-3" d="M553.22,289.44a72.37,72.37,0,0,1-2.43,20.12c-3.57,14.54-11.21,26.69-22.22,36.78a75.94,75.94,0,0,1-25.17,15.41,77.67,77.67,0,0,1-19,4.26c-8.86.92-17.47-.33-26.08-2.2-4.91-1.07-9.83-2-14.5-4-.44-.18-1-.16-1.06-.77s.61-.52,1-.71c9.62-5.3,18.62-11.44,26.36-19.29a68.88,68.88,0,0,0,20.39-47.57,95.89,95.89,0,0,0-.39-13.11,72.66,72.66,0,0,0-5.77-20.91,70.65,70.65,0,0,0-22.84-28.82,78.23,78.23,0,0,1-9-7.45c-1.74-1.74-1.69-1.94.25-3.39a40.68,40.68,0,0,1,11.65-5.62c6.85-2.32,13.81-3.68,21.12-2.74,19.89,2.55,36.44,11.19,49.13,26.85a84.85,84.85,0,0,1,15.72,30.57A75.76,75.76,0,0,1,553.22,289.44Z" transform="translate(-162.78 -191.43)"/><path class="cls-3" d="M710.47,450.9c-4.83,0-9.66.15-14.48,0-10.18-.39-20.37-.21-30.55-.4-5.94-.11-11.89-.18-17.83-.45-4.42-.2-8.57-1.71-12.64-3.34a70.42,70.42,0,0,1-25.75-17.92c-3.53-3.83-6.21-8.32-9.19-12.57-11.45-16.36-22.37-33.08-33.64-49.56q-4-5.89-8.17-11.71a1.71,1.71,0,0,1-.17-2c5.63-10.88,11.52-21.62,17.88-32.09,2.47-4.07,5-8.09,7.48-12.17a2.84,2.84,0,0,1,2.82-1.58c4.29.12,8.58.12,12.87.09a2.27,2.27,0,0,1,2.09,1.12c7.36,10.34,14.52,20.82,21.66,31.31q11.44,16.79,22.81,33.62c7.46,11,15.29,21.71,22.8,32.66,12.62,18.4,29.38,31.64,49.46,40.94a59.22,59.22,0,0,0,8.11,3c.43.13,1.14.11,1.08.74s-.79.43-1.2.44c-5.15,0-10.29,0-15.44,0Z" transform="translate(-162.78 -191.43)"/><path class="cls-3" d="M208.86,457.36h57.31c1.91,0,2.4.7,1.5,2.44-1.22,2.36-2.57,4.66-3.92,7a86.45,86.45,0,0,1-5,7.93A2.83,2.83,0,0,1,256.2,476q-41.43-.05-82.86,0c-.5,0-1.17.27-1.44-.36a1.88,1.88,0,0,1,.34-1.77c3.2-5.57,6.32-11.19,9.48-16.79,3.9-6.92,7.77-13.86,11.7-20.76,3.26-5.74,6.62-11.42,9.88-17.16s6.21-11.36,9.47-16.95c2.63-4.5,5.18-9,7.73-13.59,2.9-5.19,5.95-10.31,8.87-15.48,3.51-6.2,6.93-12.45,10.44-18.64,3.11-5.49,6.32-10.93,9.44-16.42,3.88-6.83,7.7-13.68,11.57-20.51,2.26-4,4.59-8,6.85-12q6.06-10.69,12.07-21.4,5.28-9.38,10.54-18.76c1-1.76,2.36-3.39,3-5.26,1.55-4.47,4.86-7.67,7.56-11.32,1.17-1.58,2.69-2.8,3.75-4.5,1.23-2,3.49-3,5.14-4.69a86.34,86.34,0,0,1,12.36-9.86c3-2.12,6.35-3.86,9.58-5.71a93.19,93.19,0,0,1,9.47-4.52c2.69-1.16,5.47-2.11,8.23-3.1.73-.26,1.68-.56,2.16.33s-.38,1.29-.82,1.89c-1.79,2.46-4.51,3.9-6.53,6.12A117.07,117.07,0,0,0,334,237.67c-.78,1.51-3.65,6.43-4.43,7.85-3.65,6.64-7.4,13.24-11.14,19.83-2.1,3.7-4.29,7.35-6.39,11-2.34,4.12-4.6,8.28-6.95,12.39-3.21,5.64-6.5,11.24-9.7,16.88-5.27,9.29-10.47,18.61-15.75,27.89-3.93,6.92-8,13.78-11.91,20.69-3.49,6.12-6.88,12.3-10.38,18.41-5.67,9.92-11.4,19.8-17.08,29.71-6.21,10.84-12.36,21.72-18.58,32.56-2.73,4.76-5.56,9.45-8.31,14.2C211.88,451.76,210.47,454.44,208.86,457.36Z" transform="translate(-162.78 -191.43)"/><path class="cls-3" d="M417.48,457.33c16.38.56,32.76.31,49.14.33,2.16,0,2.45.53,1.32,2.46-2.91,5-5.85,9.93-8.75,14.91a1.71,1.71,0,0,1-1.68,1c-1.23,0-2.47,0-3.7,0-10.82.38-21.65.12-32.47.4-5.12,0-10,0-15.26,0-6.16-.1-12.34-.11-18.62-.16-4.34-.27-8.67-.12-13-.25-3.61-.1-4.33-.39-2.66-4.32A119.3,119.3,0,0,1,378.26,459c3.64-6.28,6.72-12.3,10.41-18.56,2.59-4.4,5.24-8.77,7.77-13.2s5.14-8.53,7.67-12.82c4.59-7.79,9-15.67,13.52-23.5.6-1,.15-1.47-.74-1.79-.19-.07-.48,0-.63-.08-2.23-1.54-3.67-.91-5,1.38-1.11,1.91-3.5,2.17-5.4,2.92-6.46,2.56-13.21,4-20,5.43-3.27.68-6.56.43-9.81.92a60.24,60.24,0,0,1-10.43.29c-8.75-.22-17.31-1.47-25.47-4.88-1.4-.58-2.92-.88-4.3-1.57-1.7-.85-2.09-1.76-1.13-3.4,2.31-4,4.71-7.86,7-11.81,2-3.48,4-7,6-10.51,1-1.8,2.1-3.58,3.12-5.39.7-1.24,1.52-1.32,2.6-.46,2.14,1.69,4.26,3.4,6.48,5a69.23,69.23,0,0,0,16.35,8.5c2.55.94,5,2,7.64,2.8a72.53,72.53,0,0,0,10.59,2.17,63.6,63.6,0,0,0,13.28.57,101.84,101.84,0,0,0,13-1.58,93,93,0,0,0,10.17-2.38c2.91-.94,6-1.51,8.7-3a24.88,24.88,0,0,1,3.16-1.07,8.52,8.52,0,0,0,3.89-2.39c1.15-1.46,2.63-1.22,4.1-.89,1.24.28,2.44.74,3.66,1.1.93.28,1.19,1.31.59,2.35-3.67,6.32-7.31,12.66-11,19q-6.35,10.84-12.76,21.63c-3.64,6.15-7.46,12.2-10.91,18.46-2.52,4.58-5.51,8.9-7.69,13.66-1.46,3.2-2.81,6.45-4.17,9.69-.38.9-.24,1.42,1,1.56A76.2,76.2,0,0,0,417.48,457.33Z" transform="translate(-162.78 -191.43)"/><path class="cls-3" d="M684.87,476.65c-4.56,0-9.12-.15-13.67,0-15.43.59-30.87.19-46.3.23a29,29,0,0,1-7.18-.41c-2.65-.68-5.33-1.41-8-2.21a67.81,67.81,0,0,1-11.66-4.9,95.29,95.29,0,0,1-14.57-10,55.87,55.87,0,0,1-8.56-8.52c-2.27-2.76-4.26-5.82-6.29-8.81-2.95-4.36-5.76-8.84-9-13-2.49-3.16-4.2-6.77-6.63-9.94s-4.6-6.42-6.73-9.71c-3-4.68-6.26-9.21-9.19-13.95a8.65,8.65,0,0,0-.75-1c-1.52-1.79-1.76-3.41-.36-5.17,2.15-2.7,3.53-5.83,5.31-8.73,3.44-5.62,6.78-11.31,10.18-17,1-1.6,1.93-1.66,3-.13,1.69,2.34,3.31,4.73,4.94,7.11q4.62,6.8,9.21,13.61c2.44,3.62,4.73,7.35,7.31,10.87,2.92,4,5.39,8.28,8.31,12.27,3.18,4.33,6,8.9,9.1,13.3s6.22,9,9.68,13.27a58.36,58.36,0,0,0,8.54,8A76.66,76.66,0,0,0,624,450.27a86,86,0,0,0,14.26,5.91c6.72,2.15,13.57,2,20.45,2.17,18.92.49,37.84.23,56.76.28a6.66,6.66,0,0,0,1.76-.06c.74-.21,1.58-.23,1.83.42a2.14,2.14,0,0,1-.59,2.35c-3.19,2.58-6.27,5.28-9.47,7.85a95.13,95.13,0,0,0-8.52,7,2,2,0,0,1-1.62.46h-14Z" transform="translate(-162.78 -191.43)"/><path class="cls-3" d="M684.46,291.18a47,47,0,0,1-1.37,12.38A58.23,58.23,0,0,1,676,321.09c-1.59,2.57-3.3,5.08-4.9,7.64a32.45,32.45,0,0,1-5,5.54,84.48,84.48,0,0,1-8.73,7.65,74.49,74.49,0,0,1-13.66,7.89c-.38.18-.76.38-1.15.55a3.57,3.57,0,0,1-5.06-3.63c.07-1,.86-1.43,1.35-2.09,1.8-2.45,3.62-4.88,5.22-7.49a56.87,56.87,0,0,0,3.74-6.83,51.15,51.15,0,0,0,4.43-16.13c.12-3.91.18-4.07.1-5.6a106.49,106.49,0,0,0-1.41-12.37,82.48,82.48,0,0,0-2.27-8.74,55.29,55.29,0,0,0-5.83-12.89c-1.64-2.8-3.83-5.24-5.65-7.89a69.21,69.21,0,0,0-7.24-8.29c-1.77-1.86-4-3.13-6-4.71a44.64,44.64,0,0,0-5.35-4c-.74-.43-.58-1.47-.08-2.15,2-2.79,4.07-5.59,6.35-8.22a110.43,110.43,0,0,1,9.07-9,40.59,40.59,0,0,1,6.62-5,2.29,2.29,0,0,1,2.45-.16,82.49,82.49,0,0,1,8.56,5.89c2.24,1.81,4.49,3.59,6.57,5.61a106,106,0,0,1,10,11,81.8,81.8,0,0,1,6.42,9.36,78,78,0,0,1,7.94,18.45A55.1,55.1,0,0,1,684.46,291.18Z" transform="translate(-162.78 -191.43)"/><path class="cls-3" d="M482.43,287.45c-.35,8.17-1,15.94-3.4,23.4a48.15,48.15,0,0,1-4.68,9.94,60.3,60.3,0,0,1-11,13.4,128.49,128.49,0,0,1-14.7,11.51c-3.67,2.48-7.56,4.56-11.2,7.05a2.19,2.19,0,0,1-1.85.22,1.87,1.87,0,0,1-.72-.34c-1-.75-2.6-.86-2.9-2.09s1.23-1.82,1.94-2.71A103.44,103.44,0,0,0,442.56,336a66.82,66.82,0,0,0,5.62-12.37,51.73,51.73,0,0,0,2.37-14.1,66.81,66.81,0,0,0-1.77-18.69,64.33,64.33,0,0,0-7.58-18.52,63.69,63.69,0,0,0-11-13.93,61.39,61.39,0,0,0-7.46-6,22.36,22.36,0,0,0-4.73-2.73c-1.15-.42-1.15-1.05-.65-2a39.21,39.21,0,0,1,5.46-7.29,93.84,93.84,0,0,1,12.54-11.87c1.4-1.06,2.79-2.13,4.2-3.17a1.54,1.54,0,0,1,2.17,0c3.48,3.13,7.65,5.23,11.56,7.7a60.48,60.48,0,0,1,13.24,11.52,63.22,63.22,0,0,1,11.32,19,72.28,72.28,0,0,1,3,10.4A101.9,101.9,0,0,1,482.43,287.45Z" transform="translate(-162.78 -191.43)"/><path class="cls-3" d="M403.92,372.93A52.42,52.42,0,0,1,383,369.76c-9-3.32-17.9-6.82-25.19-13.36-1.1-1-1.61-1.57-.63-3.18,8.72-14.41,17.3-28.91,25.92-43.38,1.12-1.88,2.25-3.76,3.36-5.65.22-.37.41-.89.83-.92.66,0,.57.72.7,1.08,1.78,5,4,9.92,5.86,14.91a68.62,68.62,0,0,0,15.71,23.93,97.06,97.06,0,0,0,25.67,19.32c1.45.73,3,1.29,4.46,2,.31.14.85,0,.88.54s-.54.62-.89.77a104.74,104.74,0,0,1-11.81,4,111.07,111.07,0,0,1-16.69,3.06A59.73,59.73,0,0,1,403.92,372.93Z" transform="translate(-162.78 -191.43)"/><path class="cls-3" d="M551.54,218.63a2,2,0,0,1-.67,1.19,95,95,0,0,0-9,9.32c-1.42,1.72-1.69,1.68-3.24.1-.94-1-1.9-1.88-2.82-2.86s-.9-2.11.38-2.71a131.68,131.68,0,0,1,13.43-5.6C550.88,217.64,551.51,217.86,551.54,218.63Z" transform="translate(-162.78 -191.43)"/><path class="cls-3" d="M468.55,202.79h.26l-.13.06Z" transform="translate(-162.78 -191.43)"/><path class="cls-1" d="M468.55,202.79a57.22,57.22,0,0,0-11.64,3.5,106.93,106.93,0,0,0-41.2,29.62c-4.3,4.94-7.25,10.71-10.47,16.31q-9.36,16.27-18.65,32.58c-6.83,11.93-13.62,23.87-20.49,35.77Q351.53,345.8,336.87,371q-14.14,24.37-28.28,48.75c-5.56,9.58-11.17,19.13-16.73,28.72a2.17,2.17,0,0,1-2.2,1.17q-33.55-.09-67.1-.12c-1.67,0-1.72-.12-.9-1.75,5.93-11.76,12.36-23.24,19-34.61,7.27-12.42,14.42-24.92,21.68-37.35,9-15.39,18.09-30.71,27-46.13,5.77-10,11.31-20,17-30q7.92-14,15.94-27.87c6.09-10.51,12.15-21,18.44-31.43,3.32-5.48,7.94-9.95,12.64-14.27a99.09,99.09,0,0,1,53.36-25c5.71-.79,11.42-.45,17.14-.25,3.48.12,7,.07,10.46.11,7.13.08,14.26.1,21.39.31,2.67.08,5.35.22,8,.21,1.52.08,3,.12,4.56.26.56,0,1.37-.14,1.41.85l-.92.26Z" transform="translate(-162.78 -191.43)"/><path class="cls-1" d="M455.86,449.58c-11.16,0-22.31,0-33.47,0-3.58,0-3.14,0-1.55-2.59,4.75-7.87,9.6-15.68,14.48-23.48,8.05-12.88,16.22-25.69,24-38.73,1.84-3.07,3.56-6.21,5.42-9.27,1.15-1.9,2.43-2.25,4.35-2.52,1.92.07,6,.41,8.24.62A52.29,52.29,0,0,0,489,373a74.88,74.88,0,0,0,13.89-3.13,88.75,88.75,0,0,0,22-10.28A81.29,81.29,0,0,0,551.51,332,79.29,79.29,0,0,0,561,307.92a73.4,73.4,0,0,0,1.44-11.77,99.37,99.37,0,0,0-.67-17.77,85.28,85.28,0,0,0-6.69-24.14c-2-4.31-3.86-8.68-5.85-13-.39-.85,0-1.3.46-1.85a117.7,117.7,0,0,1,18.16-18.79,87.82,87.82,0,0,1,24.57-14.34,81.64,81.64,0,0,1,16.09-4.2c6-1,12-.91,17.94-1,15.11-.36,30.23-.66,45.34-.47.65,0,1.79-.49,1.89.48.07.76-1.11.55-1.73.72A102.2,102.2,0,0,0,647.65,212a119,119,0,0,0-27.11,21.44,96.26,96.26,0,0,0-14.38,19.83c-3.56,6.53-7.41,12.9-11.16,19.33q-10.11,17.33-19.69,35c-3.15,5.78-6.76,11.29-10.09,17-6.16,10.53-12.23,21.11-18.4,31.63-5.68,9.68-11.46,19.31-17.18,29q-7.51,12.7-15,25.43-8.14,13.88-16.27,27.76c-1.94,3.32-3.91,6.62-5.79,10a2,2,0,0,1-2,1.17q-17.37,0-34.75,0Z" transform="translate(-162.78 -191.43)"/><path class="cls-1" d="M759.28,289.48c-.19,14.89-2.67,27.4-8.89,39a79.63,79.63,0,0,1-23.19,26.69A77.47,77.47,0,0,1,672.61,370a71.77,71.77,0,0,1-18.74-4.63,50.38,50.38,0,0,1-9.46-5.08c-.41-.28-1.12-.41-1-1.09a2,2,0,0,1,1.25-1.56,69.44,69.44,0,0,0,16.06-9A76.57,76.57,0,0,0,687,315a63.25,63.25,0,0,0,4.46-30.83,73.4,73.4,0,0,0-8.3-26.28,97.19,97.19,0,0,0-22.61-28.12,87.38,87.38,0,0,0-9.49-7.16c-.58-.38-1.15-.67-.18-1.35,5.2-3.68,10.39-7.39,16.23-10a40.61,40.61,0,0,1,23-3.22c8.28,1.22,15.82,4.4,23.18,8.13,6,3,11.93,6.24,17.11,10.65A80,80,0,0,1,752.76,258,85.88,85.88,0,0,1,758,276.28C758.83,281.21,759.56,286.22,759.28,289.48Z" transform="translate(-162.78 -191.43)"/><path class="cls-1" d="M553.22,289.44a72.37,72.37,0,0,1-2.43,20.12c-3.57,14.54-11.21,26.69-22.22,36.78a75.94,75.94,0,0,1-25.17,15.41,77.67,77.67,0,0,1-19,4.26c-8.86.92-17.47-.33-26.08-2.2-4.91-1.07-9.83-2-14.5-4-.44-.18-1-.16-1.06-.77s.61-.52,1-.71c9.62-5.3,18.62-11.44,26.36-19.29a68.88,68.88,0,0,0,20.39-47.57,95.89,95.89,0,0,0-.39-13.11,72.66,72.66,0,0,0-5.77-20.91,70.65,70.65,0,0,0-22.84-28.82,78.23,78.23,0,0,1-9-7.45c-1.74-1.74-1.69-1.94.25-3.39a40.68,40.68,0,0,1,11.65-5.62c6.85-2.32,13.81-3.68,21.12-2.74,19.89,2.55,36.44,11.19,49.13,26.85a84.85,84.85,0,0,1,15.72,30.57A75.76,75.76,0,0,1,553.22,289.44Z" transform="translate(-162.78 -191.43)"/><path class="cls-1" d="M710.47,450.9c-4.83,0-9.66.15-14.48,0-10.18-.39-20.37-.21-30.55-.4-5.94-.11-11.89-.18-17.83-.45-4.42-.2-8.57-1.71-12.64-3.34a70.42,70.42,0,0,1-25.75-17.92c-3.53-3.83-6.21-8.32-9.19-12.57-11.45-16.36-22.37-33.08-33.64-49.56q-4-5.89-8.17-11.71a1.71,1.71,0,0,1-.17-2c5.63-10.88,11.52-21.62,17.88-32.09,2.47-4.07,5-8.09,7.48-12.17a2.84,2.84,0,0,1,2.82-1.58c4.29.12,8.58.12,12.87.09a2.27,2.27,0,0,1,2.09,1.12c7.36,10.34,14.52,20.82,21.66,31.31q11.44,16.79,22.81,33.62c7.46,11,15.29,21.71,22.8,32.66,12.62,18.4,29.38,31.64,49.46,40.94a59.22,59.22,0,0,0,8.11,3c.43.13,1.14.11,1.08.74s-.79.43-1.2.44c-5.15,0-10.29,0-15.44,0Z" transform="translate(-162.78 -191.43)"/><path class="cls-2" d="M208.86,457.36h57.31c1.91,0,2.4.7,1.5,2.44-1.22,2.36-2.57,4.66-3.92,7a86.45,86.45,0,0,1-5,7.93A2.83,2.83,0,0,1,256.2,476q-41.43-.05-82.86,0c-.5,0-1.17.27-1.44-.36a1.88,1.88,0,0,1,.34-1.77c3.2-5.57,6.32-11.19,9.48-16.79,3.9-6.92,7.77-13.86,11.7-20.76,3.26-5.74,6.62-11.42,9.88-17.16s6.21-11.36,9.47-16.95c2.63-4.5,5.18-9,7.73-13.59,2.9-5.19,5.95-10.31,8.87-15.48,3.51-6.2,6.93-12.45,10.44-18.64,3.11-5.49,6.32-10.93,9.44-16.42,3.88-6.83,7.7-13.68,11.57-20.51,2.26-4,4.59-8,6.85-12q6.06-10.69,12.07-21.4,5.28-9.38,10.54-18.76c1-1.76,2.36-3.39,3-5.26,1.55-4.47,4.86-7.67,7.56-11.32,1.17-1.58,2.69-2.8,3.75-4.5,1.23-2,3.49-3,5.14-4.69a86.34,86.34,0,0,1,12.36-9.86c3-2.12,6.35-3.86,9.58-5.71a93.19,93.19,0,0,1,9.47-4.52c2.69-1.16,5.47-2.11,8.23-3.1.73-.26,1.68-.56,2.16.33s-.38,1.29-.82,1.89c-1.79,2.46-4.51,3.9-6.53,6.12A117.07,117.07,0,0,0,334,237.67c-.78,1.51-3.65,6.43-4.43,7.85-3.65,6.64-7.4,13.24-11.14,19.83-2.1,3.7-4.29,7.35-6.39,11-2.34,4.12-4.6,8.28-6.95,12.39-3.21,5.64-6.5,11.24-9.7,16.88-5.27,9.29-10.47,18.61-15.75,27.89-3.93,6.92-8,13.78-11.91,20.69-3.49,6.12-6.88,12.3-10.38,18.41-5.67,9.92-11.4,19.8-17.08,29.71-6.21,10.84-12.36,21.72-18.58,32.56-2.73,4.76-5.56,9.45-8.31,14.2C211.88,451.76,210.47,454.44,208.86,457.36Z" transform="translate(-162.78 -191.43)"/><path class="cls-2" d="M417.48,457.33c16.38.56,32.76.31,49.14.33,2.16,0,2.45.53,1.32,2.46-2.91,5-5.85,9.93-8.75,14.91a1.71,1.71,0,0,1-1.68,1c-1.23,0-2.47,0-3.7,0-10.82.38-21.65.12-32.47.4-5.12,0-10,0-15.26,0-6.16-.1-12.34-.11-18.62-.16-4.34-.27-8.67-.12-13-.25-3.61-.1-4.33-.39-2.66-4.32A119.3,119.3,0,0,1,378.26,459c3.64-6.28,6.72-12.3,10.41-18.56,2.59-4.4,5.24-8.77,7.77-13.2s5.14-8.53,7.67-12.82c4.59-7.79,9-15.67,13.52-23.5.6-1,.15-1.47-.74-1.79-.19-.07-.48,0-.63-.08-2.23-1.54-3.67-.91-5,1.38-1.11,1.91-3.5,2.17-5.4,2.92-6.46,2.56-13.21,4-20,5.43-3.27.68-6.56.43-9.81.92a60.24,60.24,0,0,1-10.43.29c-8.75-.22-17.31-1.47-25.47-4.88-1.4-.58-2.92-.88-4.3-1.57-1.7-.85-2.09-1.76-1.13-3.4,2.31-4,4.71-7.86,7-11.81,2-3.48,4-7,6-10.51,1-1.8,2.1-3.58,3.12-5.39.7-1.24,1.52-1.32,2.6-.46,2.14,1.69,4.26,3.4,6.48,5a69.23,69.23,0,0,0,16.35,8.5c2.55.94,5,2,7.64,2.8a72.53,72.53,0,0,0,10.59,2.17,63.6,63.6,0,0,0,13.28.57,101.84,101.84,0,0,0,13-1.58,93,93,0,0,0,10.17-2.38c2.91-.94,6-1.51,8.7-3a24.88,24.88,0,0,1,3.16-1.07,8.52,8.52,0,0,0,3.89-2.39c1.15-1.46,2.63-1.22,4.1-.89,1.24.28,2.44.74,3.66,1.1.93.28,1.19,1.31.59,2.35-3.67,6.32-7.31,12.66-11,19q-6.35,10.84-12.76,21.63c-3.64,6.15-7.46,12.2-10.91,18.46-2.52,4.58-5.51,8.9-7.69,13.66-1.46,3.2-2.81,6.45-4.17,9.69-.38.9-.24,1.42,1,1.56A76.2,76.2,0,0,0,417.48,457.33Z" transform="translate(-162.78 -191.43)"/><path class="cls-2" d="M684.87,476.65c-4.56,0-9.12-.15-13.67,0-15.43.59-30.87.19-46.3.23a29,29,0,0,1-7.18-.41c-2.65-.68-5.33-1.41-8-2.21a67.81,67.81,0,0,1-11.66-4.9,95.29,95.29,0,0,1-14.57-10,55.87,55.87,0,0,1-8.56-8.52c-2.27-2.76-4.26-5.82-6.29-8.81-2.95-4.36-5.76-8.84-9-13-2.49-3.16-4.2-6.77-6.63-9.94s-4.6-6.42-6.73-9.71c-3-4.68-6.26-9.21-9.19-13.95a8.65,8.65,0,0,0-.75-1c-1.52-1.79-1.76-3.41-.36-5.17,2.15-2.7,3.53-5.83,5.31-8.73,3.44-5.62,6.78-11.31,10.18-17,1-1.6,1.93-1.66,3-.13,1.69,2.34,3.31,4.73,4.94,7.11q4.62,6.8,9.21,13.61c2.44,3.62,4.73,7.35,7.31,10.87,2.92,4,5.39,8.28,8.31,12.27,3.18,4.33,6,8.9,9.1,13.3s6.22,9,9.68,13.27a58.36,58.36,0,0,0,8.54,8A76.66,76.66,0,0,0,624,450.27a86,86,0,0,0,14.26,5.91c6.72,2.15,13.57,2,20.45,2.17,18.92.49,37.84.23,56.76.28a6.66,6.66,0,0,0,1.76-.06c.74-.21,1.58-.23,1.83.42a2.14,2.14,0,0,1-.59,2.35c-3.19,2.58-6.27,5.28-9.47,7.85a95.13,95.13,0,0,0-8.52,7,2,2,0,0,1-1.62.46h-14Z" transform="translate(-162.78 -191.43)"/><path class="cls-2" d="M684.46,291.18a47,47,0,0,1-1.37,12.38A58.23,58.23,0,0,1,676,321.09c-1.59,2.57-3.3,5.08-4.9,7.64a32.45,32.45,0,0,1-5,5.54,84.48,84.48,0,0,1-8.73,7.65,74.49,74.49,0,0,1-13.66,7.89c-.38.18-.76.38-1.15.55a3.57,3.57,0,0,1-5.06-3.63c.07-1,.86-1.43,1.35-2.09,1.8-2.45,3.62-4.88,5.22-7.49a56.87,56.87,0,0,0,3.74-6.83,51.15,51.15,0,0,0,4.43-16.13c.12-3.91.18-4.07.1-5.6a106.49,106.49,0,0,0-1.41-12.37,82.48,82.48,0,0,0-2.27-8.74,55.29,55.29,0,0,0-5.83-12.89c-1.64-2.8-3.83-5.24-5.65-7.89a69.21,69.21,0,0,0-7.24-8.29c-1.77-1.86-4-3.13-6-4.71a44.64,44.64,0,0,0-5.35-4c-.74-.43-.58-1.47-.08-2.15,2-2.79,4.07-5.59,6.35-8.22a110.43,110.43,0,0,1,9.07-9,40.59,40.59,0,0,1,6.62-5,2.29,2.29,0,0,1,2.45-.16,82.49,82.49,0,0,1,8.56,5.89c2.24,1.81,4.49,3.59,6.57,5.61a106,106,0,0,1,10,11,81.8,81.8,0,0,1,6.42,9.36,78,78,0,0,1,7.94,18.45A55.1,55.1,0,0,1,684.46,291.18Z" transform="translate(-162.78 -191.43)"/><path class="cls-2" d="M482.43,287.45c-.35,8.17-1,15.94-3.4,23.4a48.15,48.15,0,0,1-4.68,9.94,60.3,60.3,0,0,1-11,13.4,128.49,128.49,0,0,1-14.7,11.51c-3.67,2.48-7.56,4.56-11.2,7.05a2.19,2.19,0,0,1-1.85.22,1.87,1.87,0,0,1-.72-.34c-1-.75-2.6-.86-2.9-2.09s1.23-1.82,1.94-2.71A103.44,103.44,0,0,0,442.56,336a66.82,66.82,0,0,0,5.62-12.37,51.73,51.73,0,0,0,2.37-14.1,66.81,66.81,0,0,0-1.77-18.69,64.33,64.33,0,0,0-7.58-18.52,63.69,63.69,0,0,0-11-13.93,61.39,61.39,0,0,0-7.46-6,22.36,22.36,0,0,0-4.73-2.73c-1.15-.42-1.15-1.05-.65-2a39.21,39.21,0,0,1,5.46-7.29,93.84,93.84,0,0,1,12.54-11.87c1.4-1.06,2.79-2.13,4.2-3.17a1.54,1.54,0,0,1,2.17,0c3.48,3.13,7.65,5.23,11.56,7.7a60.48,60.48,0,0,1,13.24,11.52,63.22,63.22,0,0,1,11.32,19,72.28,72.28,0,0,1,3,10.4A101.9,101.9,0,0,1,482.43,287.45Z" transform="translate(-162.78 -191.43)"/><path class="cls-1" d="M403.92,372.93A52.42,52.42,0,0,1,383,369.76c-9-3.32-17.9-6.82-25.19-13.36-1.1-1-1.61-1.57-.63-3.18,8.72-14.41,17.3-28.91,25.92-43.38,1.12-1.88,2.25-3.76,3.36-5.65.22-.37.41-.89.83-.92.66,0,.57.72.7,1.08,1.78,5,4,9.92,5.86,14.91a68.62,68.62,0,0,0,15.71,23.93,97.06,97.06,0,0,0,25.67,19.32c1.45.73,3,1.29,4.46,2,.31.14.85,0,.88.54s-.54.62-.89.77a104.74,104.74,0,0,1-11.81,4,111.07,111.07,0,0,1-16.69,3.06A59.73,59.73,0,0,1,403.92,372.93Z" transform="translate(-162.78 -191.43)"/><path class="cls-2" d="M551.54,218.63a2,2,0,0,1-.67,1.19,95,95,0,0,0-9,9.32c-1.42,1.72-1.69,1.68-3.24.1-.94-1-1.9-1.88-2.82-2.86s-.9-2.11.38-2.71a131.68,131.68,0,0,1,13.43-5.6C550.88,217.64,551.51,217.86,551.54,218.63Z" transform="translate(-162.78 -191.43)"/><path class="cls-2" d="M468.55,202.79h.26l-.13.06Z" transform="translate(-162.78 -191.43)"/></svg>